<svg xmlns="http://www.w3.org/2000/svg" viewBox="0 0 1600 900" width="1600" height="900" role="img">
<defs><pattern id="g" width="40" height="40" patternUnits="userSpaceOnUse">
<path d="M40 0H0V40" fill="none" stroke="rgba(13,13,15,.055)" stroke-width="1"/></pattern></defs>
<rect width="1600" height="900" fill="#efefea"/><rect width="1600" height="900" fill="url(#g)"/>
    <rect x="230.39999999999998" y="117" width="320" height="594" rx="18" fill="#fff"/>
    <rect x="230.39999999999998" y="117" width="320" height="594" rx="18" fill="none" stroke="rgba(13,13,15,.10)"/>
    <rect x="339.2" y="129" width="102.4" height="6" rx="3" fill="rgba(13,13,15,.10)"/>
    <rect x="246.39999999999998" y="157" width="160" height="12" rx="3" fill="#0d0d0f"/>
    <rect x="246.39999999999998" y="179" width="224" height="8" rx="3" fill="rgba(13,13,15,.10)"/>
    <rect x="246.39999999999998" y="209" width="288" height="154.44" rx="8" fill="#f6f6f3"/>
    <rect x="246.39999999999998" y="395.2" width="288" height="10" rx="3" fill="rgba(13,13,15,.10)"/>
    <rect x="246.39999999999998" y="415.2" width="192" height="10" rx="3" fill="rgba(13,13,15,.10)"/>
    <rect x="246.39999999999998" y="665" width="288" height="28" rx="14" fill="#f6f6f3"/>
    <rect x="640" y="117" width="320" height="594" rx="18" fill="#fff"/>
    <rect x="640" y="117" width="320" height="594" rx="18" fill="none" stroke="rgba(13,13,15,.10)"/>
    <rect x="748.8" y="129" width="102.4" height="6" rx="3" fill="rgba(13,13,15,.10)"/>
    <rect x="656" y="157" width="160" height="12" rx="3" fill="#0d0d0f"/>
    <rect x="656" y="179" width="224" height="8" rx="3" fill="rgba(13,13,15,.10)"/>
    <rect x="656" y="209" width="288" height="154.44" rx="8" fill="#f6f6f3"/>
    <rect x="656" y="395.2" width="288" height="10" rx="3" fill="#2f4bff"/>
    <rect x="656" y="415.2" width="192" height="10" rx="3" fill="rgba(13,13,15,.10)"/>
    <rect x="656" y="665" width="288" height="28" rx="14" fill="#2f4bff"/>
    <rect x="1049.6" y="117" width="320" height="594" rx="18" fill="#fff"/>
    <rect x="1049.6" y="117" width="320" height="594" rx="18" fill="none" stroke="rgba(13,13,15,.10)"/>
    <rect x="1158.3999999999999" y="129" width="102.4" height="6" rx="3" fill="rgba(13,13,15,.10)"/>
    <rect x="1065.6" y="157" width="160" height="12" rx="3" fill="#0d0d0f"/>
    <rect x="1065.6" y="179" width="224" height="8" rx="3" fill="rgba(13,13,15,.10)"/>
    <rect x="1065.6" y="209" width="288" height="154.44" rx="8" fill="#f6f6f3"/>
    <rect x="1065.6" y="395.2" width="288" height="10" rx="3" fill="rgba(13,13,15,.10)"/>
    <rect x="1065.6" y="415.2" width="192" height="10" rx="3" fill="rgba(13,13,15,.10)"/>
    <rect x="1065.6" y="665" width="288" height="28" rx="14" fill="#f6f6f3"/>
<g font-family="'Space Grotesk',Inter,sans-serif">
  <text x="800" y="854" text-anchor="middle" font-size="17" letter-spacing="3" fill="#8c8c94">GROCERY APP — PLACEHOLDER 02</text>
  <text x="800" y="878" text-anchor="middle" font-size="14" letter-spacing="1.5" fill="#8c8c94" opacity=".7">Replace this file with your export · 1600×900</text>
</g></svg>